# xmcd
#
# Track frame offsets: 
#        150
#        45732
#        67244
#        80527
#        126939
#        150307
#        177499
#        206781
#        235857
#        255761
#        268842
#        290050
#        306867
#        319484
#
# Disc length: 4466 seconds
#
# Revision: 0
# Processed by: cddbd v1.5.2PL0 Copyright (c) Steve Scherf et al.
# Submitted via: ExactAudioCopy v0.99pb5
#
DISCID=d311700e
DTITLE=Various Artist - Chris Barber - Memories Of My Trip - Disc 2
DYEAR=2011
DGENRE=Blues
TTITLE0=Ottilie Patterson and Chris Barbers Jazz Band and Edmond Hall - St
TTITLE0=Louis Blues-Missouri Special-St Louis Blues
TTITLE1=Edmond Hall and Ian Wheeler and Chris Barbers Jazz Band - High Soc
TTITLE1=iety
TTITLE2=Keith Emerson and The T-Bones and Chris Barber - Rock Candy
TTITLE3=Trummy Young and Chris Barbers Jazz and Blues Band - Georgia On My
TTITLE3=Mind
TTITLE4=Joe Darensbourg and Pat Halcox and Chris Barber - Rose Room
TTITLE5=Albert Nicholas and Chris Barbers Jazz Band - C-Jam Blues
TTITLE6=Chris Barber At The Boston Tea Party - Tea Party Blues
TTITLE7=Eddie Durham and Chris Barbers Jazz and Blues Band - Jack Teagarde
TTITLE7=n Bues
TTITLE8=Sammy Price and Sandy Brown and Chris Barber and Keith Smith - Tailg
TTITLE8=ate Boogie
TTITLE9=Chris Barbers Six Piece and Jools Holland - Winnin' Boy Blues
TTITLE10=Chris Barbers Six Piece and Jools Holland - On The Sunny Side O
TTITLE10=f The Street
TTITLE11=Mark Knopfler and Chris Barbers Jazz Band - Blues Stay Away Fro
TTITLE11=m Me
TTITLE12=Mark Knopfler and Chris Barbers Jazz Band - Dallas Rag
TTITLE13=Mark Knopfler and Chris Barbers Jazz Band /'Til The Next Time I
TTITLE13='m In Town
EXTD=
EXTT0=
EXTT1=
EXTT2=
EXTT3=
EXTT4=
EXTT5=
EXTT6=
EXTT7=
EXTT8=
EXTT9=
EXTT10=
EXTT11=
EXTT12=
EXTT13=
PLAYORDER=
